<?xml version="1.0" standalone="no"?>
<!DOCTYPE svg PUBLIC "-//W3C//DTD SVG 20010904//EN"
 "http://www.w3.org/TR/2001/REC-SVG-20010904/DTD/svg10.dtd">
<svg version="1.0" xmlns="http://www.w3.org/2000/svg"
 width="300.000000pt" height="300.000000pt" viewBox="0 0 300.000000 300.000000"
 preserveAspectRatio="xMidYMid meet">
<metadata>
Created by potrace 1.10, written by Peter Selinger 2001-2011
</metadata>
<g transform="translate(0.000000,300.000000) scale(0.100000,-0.100000)"
fill="#fff" stroke="none">
<path d="M1368 2450 c-405 -65 -711 -344 -811 -740 -32 -128 -29 -320 7 -455
73 -276 257 -502 511 -625 153 -74 224 -91 400 -97 137 -4 158 -2 250 21 355
92 619 352 712 702 22 83 26 121 26 234 1 210 -45 366 -156 532 -175 264 -457
421 -772 433 -60 2 -136 0 -167 -5z m377 -59 c262 -70 474 -246 596 -496 108
-221 120 -509 32 -735 -109 -278 -350 -492 -643 -571 -117 -32 -337 -32 -451
-1 -362 99 -620 366 -694 720 -19 93 -19 280 0 369 78 369 351 645 715 724
116 26 330 21 445 -10z"/>
<path d="M1413 2320 c-6 -24 -19 -26 -31 -4 -5 9 -17 14 -26 13 -16 -4 -16 -6
3 -31 21 -26 21 -29 6 -57 -19 -37 -19 -41 0 -41 9 0 21 11 27 25 11 24 11 25
25 5 13 -18 43 -28 43 -14 0 3 -9 19 -21 35 -19 27 -19 31 -5 51 20 28 20 38
0 38 -9 0 -18 -9 -21 -20z"/>
<path d="M1490 2321 c0 -10 -3 -39 -6 -65 -6 -38 -4 -46 9 -46 11 0 17 12 19
43 l3 42 23 -42 c23 -44 52 -57 52 -24 0 10 3 39 6 65 6 38 4 46 -9 46 -11 0
-17 -12 -19 -42 l-3 -43 -23 43 c-23 43 -52 56 -52 23z"/>
<path d="M1637 2323 c-3 -5 -8 -34 -12 -65 -6 -48 -5 -58 8 -58 10 0 16 15 21
50 4 28 9 57 12 65 6 15 -21 22 -29 8z"/>
<path d="M1252 2307 c-36 -11 -36 -6 -11 -100 9 -33 13 -37 32 -32 12 4 30 9
40 11 9 3 17 11 17 19 0 10 -7 12 -30 5 -26 -7 -30 -6 -30 11 0 12 7 19 20 19
11 0 20 7 20 15 0 11 -5 12 -24 5 -18 -7 -26 -5 -30 6 -4 10 3 16 25 21 16 3
28 10 26 16 -5 15 -18 16 -55 4z"/>
<path d="M1705 2308 c-39 -109 -41 -118 -20 -118 8 0 15 9 15 20 0 29 17 25
24 -6 8 -31 70 -61 91 -44 18 15 43 2 47 -23 2 -11 8 -22 15 -24 7 -3 14 19
18 63 10 90 -4 99 -65 39 -25 -25 -49 -45 -53 -45 -4 0 -14 17 -22 38 -15 34
-15 38 0 47 48 29 51 33 32 40 -11 5 -25 1 -36 -9 -23 -21 -30 -20 -24 3 5 21
-15 39 -22 19z"/>
<path d="M1133 2263 c-36 -18 -47 -49 -14 -38 16 5 23 -3 40 -39 14 -33 24
-44 35 -40 13 5 13 11 -5 47 -17 32 -19 45 -10 59 21 33 6 37 -46 11z"/>
<path d="M981 2170 c-19 -16 -30 -33 -26 -40 5 -8 11 -8 21 1 8 6 16 10 18 8
1 -2 15 -21 30 -41 16 -21 32 -35 37 -32 15 9 11 21 -18 54 -21 26 -24 35 -15
50 10 16 7 31 -7 30 -3 -1 -21 -14 -40 -30z"/>
<path d="M1982 2128 c-37 -49 -39 -61 -12 -88 28 -28 44 -25 90 16 33 30 38
39 28 51 -10 12 -17 9 -44 -21 -36 -39 -51 -44 -61 -20 -3 9 7 28 27 49 18 18
29 38 26 44 -12 18 -20 13 -54 -31z"/>
<path d="M1342 2110 c-231 -61 -420 -254 -467 -476 -61 -289 78 -585 336 -712
192 -95 384 -94 579 1 161 78 289 240 335 422 34 133 10 320 -57 448 -48 93
-183 223 -278 269 -141 68 -304 85 -448 48z m276 -25 c224 -45 401 -207 468
-430 29 -94 24 -259 -9 -353 -37 -106 -82 -175 -164 -251 -233 -219 -586 -221
-821 -6 -132 121 -194 262 -195 445 0 82 4 120 22 175 73 228 243 377 482 424
69 14 133 12 217 -4z"/>
<path d="M1285 1940 l-200 -58 -3 -273 c-3 -309 2 -338 65 -429 52 -74 157
-160 263 -214 l88 -46 48 21 c142 62 294 194 343 299 26 55 26 57 29 348 2
160 2 292 0 292 -2 0 -95 27 -208 60 -113 33 -209 60 -215 59 -5 0 -100 -27
-210 -59z m315 -4 c30 -9 62 -18 70 -21 16 -5 59 -17 130 -36 85 -23 91 -31
89 -118 -1 -42 -4 -79 -6 -84 -3 -4 -18 4 -36 19 -29 24 -34 25 -101 18 -39
-4 -80 -7 -91 -6 -11 2 -37 2 -57 2 -27 0 -45 7 -69 30 -40 36 -52 37 -77 5
-11 -13 -31 -30 -46 -36 -23 -11 -31 -9 -69 18 -38 27 -83 41 -72 22 9 -14
-22 -17 -46 -3 -34 19 -53 17 -75 -7 l-19 -21 -5 38 c-3 22 -3 53 -1 71 3 28
8 33 45 42 33 8 181 50 214 61 4 1 12 4 17 5 6 2 24 8 40 14 38 13 94 9 165
-13z m-95 -253 l-7 -58 27 33 c15 17 33 32 41 32 19 0 18 -10 -7 -36 l-21 -23
26 -34 c31 -41 32 -47 7 -47 -11 0 -28 15 -41 35 -27 43 -32 44 -28 3 2 -25
-1 -34 -14 -36 -16 -3 -18 6 -18 92 0 90 1 96 21 96 19 0 20 -4 14 -57z m-271
-15 l36 -63 0 63 c0 55 2 62 20 62 19 0 20 -7 20 -91 0 -87 -1 -90 -22 -87
-14 2 -33 22 -52 55 -43 72 -45 72 -39 4 5 -57 4 -61 -16 -61 -20 0 -21 5 -21
90 0 82 2 90 19 90 14 0 31 -19 55 -62z m131 -30 c1 -53 7 -63 30 -54 13 4 16
17 14 53 -3 39 0 48 14 51 15 3 17 -6 17 -66 l0 -69 -42 0 c-59 -1 -68 9 -68
79 0 51 2 59 18 56 13 -3 17 -14 17 -50z m277 0 c2 -39 7 -53 18 -53 11 0 16
14 18 53 3 44 6 52 23 52 17 0 19 -7 19 -70 l0 -70 -51 3 c-60 4 -69 14 -69
85 0 45 3 52 19 52 17 0 20 -8 23 -52z m179 42 c10 -6 19 -17 19 -25 0 -11 -5
-12 -26 -5 -32 13 -44 13 -44 0 0 -5 12 -13 28 -16 36 -9 52 -23 52 -45 0 -41
-95 -50 -108 -10 -4 11 3 12 33 7 47 -9 45 14 -3 26 -27 7 -32 13 -32 37 0 39
38 53 81 31z m-653 -151 c9 -3 5 -15 -13 -39 -22 -29 -25 -41 -20 -75 11 -66
11 -88 -1 -92 -7 -2 -13 11 -16 32 -2 19 -2 35 2 35 3 0 3 36 0 80 -6 96 -3
110 19 83 9 -11 22 -22 29 -24z m714 -32 c-4 -16 -6 -15 -23 4 -23 27 -23 29
-1 45 15 11 18 10 23 -9 3 -12 3 -30 1 -40z m-130 12 c-2 -13 -6 -61 -9 -106
-4 -62 -9 -83 -19 -83 -14 0 -15 6 -18 100 -1 30 -6 63 -10 73 -6 13 -3 22 10
31 27 20 50 13 46 -15z m-433 -24 c26 -13 41 -33 41 -56 0 -16 -57 -10 -64 7
-9 24 -71 15 -71 -11 0 -15 14 -24 60 -40 88 -30 109 -82 56 -136 -34 -33 -92
-39 -140 -15 -22 12 -51 52 -51 71 0 15 57 2 68 -15 20 -33 92 -24 92 11 0 14
-14 22 -54 34 -59 17 -81 36 -91 77 -6 22 -1 33 23 58 35 34 84 40 131 15z
m271 -15 c0 -28 -2 -30 -40 -30 l-40 0 0 -110 0 -110 -30 0 -30 0 0 110 0 110
-40 0 c-38 0 -40 2 -40 30 l0 30 110 0 110 0 0 -30z m80 -67 c0 -105 12 -133
56 -133 44 0 54 23 54 131 l0 99 30 0 30 0 0 -90 c0 -102 -15 -150 -54 -176
-38 -24 -110 -14 -145 20 -24 25 -26 33 -29 136 l-4 110 31 0 31 0 0 -97z
m-256 -20 c3 -10 1 -34 -3 -53 -5 -20 -9 -26 -10 -14 -1 11 -8 29 -16 40 -8
10 -15 25 -15 32 0 19 38 14 44 -5z m162 -18 c2 -64 17 -106 47 -135 36 -35
78 -45 148 -36 47 6 50 6 40 -12 -18 -33 -115 -116 -187 -158 -105 -62 -119
-65 -178 -35 -28 14 -54 25 -58 25 -4 1 -15 8 -25 16 -10 8 -31 23 -47 34 -46
30 -116 97 -116 112 0 10 15 14 55 14 65 0 109 19 127 56 18 36 30 35 40 -2
14 -55 84 -70 108 -24 6 11 11 56 12 100 0 69 3 80 17 78 10 -2 16 -14 17 -33z"/>
<path d="M886 2091 c-8 -13 47 -131 59 -127 6 1 10 11 10 22 0 28 14 45 33 40
17 -5 51 9 42 17 -9 7 -122 57 -131 57 -4 0 -10 -4 -13 -9z"/>
<path d="M2071 2031 c-27 -24 -41 -43 -36 -51 5 -8 16 -3 36 16 16 15 31 26
33 23 3 -2 -4 -23 -14 -46 -27 -62 -7 -72 50 -27 57 45 53 41 45 54 -5 7 -18
2 -41 -15 -39 -30 -40 -28 -18 19 16 32 14 67 -3 66 -4 -1 -28 -18 -52 -39z"/>
<path d="M787 1968 c-2 -7 19 -29 49 -50 l54 -37 21 30 c14 21 18 34 11 41 -6
6 -14 3 -24 -11 -15 -21 -15 -21 -56 9 -48 34 -48 34 -55 18z"/>
<path d="M2158 1927 c-44 -30 -62 -57 -38 -57 21 0 107 65 103 78 -6 17 -11
15 -65 -21z"/>
<path d="M754 1918 c-4 -7 8 -25 32 -45 41 -34 35 -39 -28 -24 -28 7 -38 5
-42 -5 -5 -14 -4 -15 87 -32 67 -14 71 5 16 67 -48 53 -54 57 -65 39z"/>
<path d="M2192 1860 c-24 -27 -41 -54 -37 -60 4 -7 24 -9 53 -5 79 10 92 14
86 29 -4 10 -16 11 -51 5 -26 -5 -48 -7 -50 -5 -2 2 12 15 31 30 22 17 33 32
30 41 -9 22 -14 18 -62 -35z"/>
<path d="M2240 1762 c-30 -8 -56 -16 -58 -18 -2 -1 2 -21 9 -43 14 -48 36 -49
31 -3 -4 39 15 42 29 5 7 -18 13 -23 20 -16 8 8 8 17 0 31 -8 16 -7 21 4 26
10 3 17 -3 21 -19 6 -23 34 -36 34 -16 0 16 -22 71 -28 70 -4 -1 -32 -8 -62
-17z"/>
<path d="M684 1758 c-4 -7 6 -23 27 -41 75 -64 106 -73 80 -23 -14 26 -8 46
14 46 7 0 15 7 19 15 4 12 -6 15 -64 15 -42 0 -72 -5 -76 -12z"/>
<path d="M666 1644 c-9 -8 -16 -31 -16 -50 0 -30 3 -34 28 -34 15 0 44 -3 65
-6 l37 -7 0 40 c0 26 -6 46 -18 56 -23 21 -76 22 -96 1z m82 -44 c3 -20 0 -22
-20 -17 -12 4 -29 7 -35 7 -7 0 -13 9 -13 19 0 39 63 31 68 -9z"/>
<path d="M2263 1651 c-24 -4 -45 -10 -49 -13 -12 -12 6 -26 26 -21 25 7 25 -2
0 -34 -24 -31 -18 -43 9 -19 16 15 22 15 40 4 39 -24 70 14 57 68 -7 25 -12
26 -83 15z m57 -41 c0 -11 -7 -20 -15 -20 -8 0 -15 9 -15 20 0 11 7 20 15 20
8 0 15 -9 15 -20z"/>
<path d="M2232 1518 c-7 -7 -12 -21 -12 -33 0 -51 60 -63 80 -15 7 17 16 30
20 30 15 0 18 -13 7 -31 -14 -23 -3 -36 18 -19 18 15 20 51 3 68 -23 23 -48
13 -64 -23 -8 -19 -19 -35 -24 -35 -13 0 -13 37 0 45 6 3 10 10 10 16 0 13
-24 11 -38 -3z"/>
<path d="M711 1468 c-5 -13 -12 -31 -15 -41 -10 -30 -28 -8 -21 25 9 39 -15
34 -30 -6 -7 -22 -5 -30 13 -49 28 -27 52 -15 64 31 5 18 13 32 18 32 15 0 23
-21 11 -33 -6 -6 -11 -20 -11 -31 0 -18 1 -19 20 -1 26 23 26 71 1 85 -29 15
-40 12 -50 -12z"/>
<path d="M2220 1408 c0 -11 15 -17 46 -22 69 -9 84 -8 84 9 0 10 -10 15 -34
15 -18 0 -48 3 -65 6 -24 5 -31 3 -31 -8z"/>
<path d="M698 1357 c-49 -14 -54 -43 -5 -32 58 13 72 11 72 -9 0 -14 -12 -23
-43 -34 -24 -8 -41 -19 -39 -25 9 -27 110 17 115 50 3 23 -30 64 -50 62 -7 -1
-30 -6 -50 -12z"/>
<path d="M2310 1339 c0 -15 -5 -19 -16 -15 -9 3 -33 9 -55 12 -31 5 -39 3 -39
-9 0 -10 16 -18 48 -24 34 -6 47 -13 46 -25 -1 -9 4 -19 11 -22 9 -3 17 11 24
39 14 55 14 52 -4 59 -10 4 -15 -1 -15 -15z"/>
<path d="M2172 1231 c-15 -49 -15 -51 2 -51 8 0 17 11 20 25 4 14 14 25 22 25
10 0 14 -5 10 -15 -3 -8 -9 -22 -12 -30 -4 -9 -1 -15 9 -15 8 0 18 11 21 25 9
36 29 20 21 -16 -10 -44 19 -37 33 8 6 20 10 38 9 38 -4 3 -119 45 -121 45 -2
0 -8 -17 -14 -39z"/>
<path d="M792 1229 c-15 -27 -21 -30 -55 -26 -31 4 -37 2 -33 -10 3 -8 6 -17
6 -19 0 -2 14 -4 30 -4 17 0 30 -4 30 -10 0 -5 -6 -10 -14 -10 -18 0 -29 -16
-21 -30 8 -13 115 40 115 57 0 16 -22 17 -38 1 -21 -21 -25 1 -4 27 12 15 18
33 15 41 -7 20 -12 18 -31 -17z"/>
<path d="M2130 1135 c0 -8 18 -24 39 -35 30 -15 38 -24 34 -39 -10 -38 16 -30
40 14 17 29 22 47 15 51 -6 4 -16 0 -22 -8 -11 -14 -16 -13 -51 8 -47 28 -55
29 -55 9z"/>
<path d="M798 1105 c-21 -14 -38 -29 -38 -33 0 -21 15 -19 51 5 37 24 69 26
69 3 0 -6 -18 -23 -40 -38 -37 -26 -45 -42 -24 -49 5 -2 29 15 54 36 44 39 45
40 30 68 -20 37 -55 39 -102 8z"/>
<path d="M2087 1073 c-13 -13 -6 -21 44 -53 35 -23 53 -30 61 -22 7 7 -3 18
-33 37 -24 15 -49 32 -55 36 -6 5 -14 6 -17 2z"/>
<path d="M882 999 c-31 -30 -41 -44 -33 -52 8 -8 19 -3 40 17 l29 27 -11 -46
c-16 -68 0 -74 57 -24 33 29 44 45 37 52 -8 8 -20 2 -42 -19 l-31 -29 8 35
c19 87 6 96 -54 39z"/>
</g>
</svg>
